<svg width="67" height="67" fill="none" xmlns="http://www.w3.org/2000/svg"><path d="M18.052 14.415v-.166h14.947c5.905 0 10.573 1.753 14.006 5.259 3.469 3.469 5.203 8.1 5.203 13.895 0 5.647-1.827 10.334-5.48 14.061-3.654 3.69-8.23 5.536-13.73 5.536H18.053v-.166h3.487v-38.42h-3.487zm14.449 0h-5.204v38.419h5.259c4.281 0 7.566-1.753 9.854-5.26 2.288-3.505 3.432-8.118 3.432-13.839 0-5.462-1.2-10.057-3.598-13.784-2.362-3.69-5.61-5.536-9.743-5.536z" fill="#6E6D87"/><circle cx="33.5" cy="33.5" r="33.35" stroke="#6E6D87" stroke-width=".3"/></svg>