<svg width="28" height="28" fill="none" xmlns="http://www.w3.org/2000/svg"><path d="M18.425 4.893V.82a.32.32 0 00-.32-.32H13.71a.32.32 0 00-.32.32v4.073H4.78l-.058-.434-.2-1.504s0 0 0 0c-.097-.717-.393-1.345-.785-1.786C3.343.726 2.882.5 2.449.5H.984a.32.32 0 100 .64H2.45c.221 0 .41.107.535.198.14.101.273.238.39.397.238.32.44.765.512 1.305 0 0 0 0 0 0l2.348 17.611h0c.087.65.422 1.269.957 1.737h0c.396.347.86.574 1.342.669l.667.131-.325.598a2.52 2.52 0 002.213 3.714 2.52 2.52 0 002.518-2.517c0-.413-.1-.803-.278-1.147l-.376-.73h5.938l-.376.73a2.495 2.495 0 00-.278 1.147 2.52 2.52 0 002.517 2.517 2.52 2.52 0 002.517-2.517 2.5 2.5 0 00-.278-1.147l-.375-.73h2.969a.32.32 0 000-.64H9.039c-1.053 0-2.03-.857-2.17-1.9h0l-.171-1.287-.076-.566H23.39a2.82 2.82 0 001.847-.718L18.425 4.893zm0 0h6.722c.688 0 1.288.27 1.707.749l.376-.33m-8.805-.419l8.805.42m0 0l-.376.329c.42.479.608 1.11.517 1.791l.495.066m-.636-2.186l.636 2.186m0 0l-.495-.066-1.176 8.825m1.671-8.759l-1.671 8.759m0 0a2.822 2.822 0 01-.957 1.737l.957-1.737zM14.53 1.14h-.5v3.752h3.753V1.141h-3.252zm12.205 6.207l-.496-.066.496.066c.062-.465-.054-.93-.364-1.284h0c-.31-.354-.755-.53-1.225-.53H4.865l.075.566 1.54 11.54.058.434H23.39c1.052 0 2.03-.857 2.17-1.9h0l1.176-8.825zM11.089 26.86a1.878 1.878 0 001.876-1.876 1.878 1.878 0 00-1.876-1.876 1.878 1.878 0 00-1.876 1.876c0 1.035.84 1.876 1.876 1.876zm9.665 0a1.878 1.878 0 001.876-1.876 1.878 1.878 0 00-1.876-1.876 1.878 1.878 0 00-1.876 1.876c0 1.035.84 1.876 1.876 1.876z" fill="#515076" stroke="#515076"/><path d="M10.904 5.145l.293 13.15m3.673-13.63l.294 13.15m3.673-12.63l.293 13.15m3.673-12.63l.293 13.15" stroke="#515076" stroke-width="1.5"/></svg>