<svg width="23" height="21" fill="none" xmlns="http://www.w3.org/2000/svg"><path d="M21.823.994H1.441c-.557 0-1.01.395-1.01.881V19.66c0 .485.453.88 1.01.88h20.382c.559 0 1.012-.395 1.012-.88V1.875c0-.486-.453-.88-1.012-.88zm-10.19 6.363c2.16 0 3.91 1.527 3.91 3.41 0 1.884-1.75 3.411-3.91 3.411s-3.91-1.527-3.91-3.41c0-1.884 1.75-3.411 3.91-3.411zm8.402 10.74H3.23v-8.55h1.844a5.126 5.126 0 00-.152 1.222c0 3.228 3.01 5.854 6.71 5.854 3.701 0 6.71-2.626 6.71-5.854a5.2 5.2 0 00-.151-1.222h1.843v8.552zm0-10.995h-4.201V3.437h4.2v3.665z" fill="#5B5A7E"/></svg>